HIERARCHY
ROOT Hips
{
  OFFSET -331.093 83.8371 -317.828
  CHANNELS 6 Xposition Yposition Zposition Zrotation Xrotation Yrotation
  JOINT LeftUpLeg
  {
    OFFSET 8.64259 1.95398 -2.38835
    CHANNELS 3 Zrotation Xrotation Yrotation
    JOINT LeftLeg
    {
      OFFSET 43.7702 0 0
      CHANNELS 3 Zrotation Xrotation Yrotation
      JOINT LeftFoot
      {
        OFFSET 40.6238 0 0
        CHANNELS 3 Zrotation Xrotation Yrotation
        JOINT LeftToeBase
        {
          OFFSET 12.7242 0 0
          CHANNELS 3 Zrotation Xrotation Yrotation
          End Site
          {
            OFFSET 0 0 0
          }
        }
      }
    }
  }
  JOINT RightUpLeg
  {
    OFFSET -8.2249 1.95398 -2.59336
    CHANNELS 3 Zrotation Xrotation Yrotation
    JOINT RightLeg
    {
      OFFSET 43.5653 0 0
      CHANNELS 3 Zrotation Xrotation Yrotation
      JOINT RightFoot
      {
        OFFSET 40.6238 0 0
        CHANNELS 3 Zrotation Xrotation Yrotation
        JOINT RightToeBase
        {
          OFFSET 12.7242 0 0
          CHANNELS 3 Zrotation Xrotation Yrotation
          End Site
          {
            OFFSET 0 0 0
          }
        }
      }
    }
  }
  JOINT Spine
  {
    OFFSET 0.165834 0.87714 6.61349
    CHANNELS 3 Zrotation Xrotation Yrotation
    JOINT Spine1
    {
      OFFSET 7.38963 1.71661e-005 0
      CHANNELS 3 Zrotation Xrotation Yrotation
      JOINT Spine2
      {
        OFFSET 11.9445 1.14441e-005 0
        CHANNELS 3 Zrotation Xrotation Yrotation
        JOINT Spine3
        {
          OFFSET 14.7254 4.19617e-005 0
          CHANNELS 3 Zrotation Xrotation Yrotation
          JOINT Spine4
          {
            OFFSET 10.9679 0 0
            CHANNELS 3 Zrotation Xrotation Yrotation
            JOINT RightShoulder
            {
              OFFSET 2.46616 -1.6653 3.69651
              CHANNELS 3 Zrotation Xrotation Yrotation
              JOINT RightArm
              {
                OFFSET 13.0012 0 0
                CHANNELS 3 Zrotation Xrotation Yrotation
                JOINT RightForeArm
                {
                  OFFSET 28.7848 1.62311e-005 0
                  CHANNELS 3 Zrotation Xrotation Yrotation
                  JOINT RightHand
                  {
                    OFFSET 26.5688 1.62095e-005 0
                    CHANNELS 3 Zrotation Xrotation Yrotation
                    End Site
                    {
                      OFFSET 0 0 0
                    }
                  }
                }
              }
            }
            JOINT LeftShoulder
            {
              OFFSET 2.38034 -1.29275 -3.7523
              CHANNELS 3 Zrotation Xrotation Yrotation
              JOINT LeftArm
              {
                OFFSET 16.3182 6.07031e-005 0
                CHANNELS 3 Zrotation Xrotation Yrotation
                JOINT LeftForeArm
                {
                  OFFSET 27.0901 0 0
                  CHANNELS 3 Zrotation Xrotation Yrotation
                  JOINT LeftHand
                  {
                    OFFSET 24.5451 1.51738e-005 0
                    CHANNELS 3 Zrotation Xrotation Yrotation
                    End Site
                    {
                      OFFSET 0 0 0
                    }
                  }
                }
              }
            }
            JOINT Neck
            {
              OFFSET 5.0226 -0.0266342 0
              CHANNELS 3 Zrotation Xrotation Yrotation
              JOINT Head
              {
                OFFSET 6.69364 2.86102e-005 0
                CHANNELS 3 Zrotation Xrotation Yrotation
                End Site
                {
                  OFFSET 0 0 0
                }
              }
            }
          }
        }
      }
    }
  }
}
MOTION
Frames:	9
Frame Time:	0.0416667
-64.9173 41.4382 17.2783 -156.593 -78.9681 -144.931 71.1348 78.9716 -152.849 -131.528 -3.83505 5.30043 58.3702 10.0378 16.7379 58.3729 28.9625 8.21111 102.033 60.7559 176.161 -129.366 26.3448 -5.80402 80.4492 -17.9782 -10.1376 47.4891 -4.04388 -12.7855 1.25004 12.2133 -90.7449 2.45719 2.206 -1.41793 -9.21275 2.14146 -1.51366 -31.761 2.5301 -0.689093 -11.7483 2.5301 -0.689086 88.9282 -28.5089 -109.11 -1.5214 -1.65461 -46.8556 21.3504 19.988 -49.7908 -14.2568 -0.145062 -3.7308 -100.694 -42.4484 60.4914 25.339 4.99109 -39.167 -25.0866 -22.8072 -52.3457 18.2612 0.545433 -0.877111 -6.73155 0.301958 3.88385 -7.7661 0.0371535 -1.01565 
-64.2671 42.7003 16.799 -172.776 -78.4104 -163.568 82.7625 84.1228 -167.744 -128.908 -6.08559 5.70818 58.3554 10.176 15.9024 58.5572 26.4877 4.40762 105.47 63.8446 168.53 -128.549 25.6511 -5.71473 79.4376 -17.027 -9.91447 48.7879 -3.47325 -10.3064 0.79254 12.3815 -90.615 2.11558 1.34453 -1.17164 -9.55525 1.29167 -1.22969 -32.0941 1.63449 -0.713339 -12.0815 1.63448 -0.71335 88.9453 -28.6525 -109.014 -0.777299 -1.86258 -46.5074 20.8253 19.8597 -50.8584 -14.5005 -0.329552 -2.44557 -100.335 -42.4296 61.0375 24.437 4.73232 -39.506 -23.9902 -21.9725 -52.267 16.7022 0.537525 -0.656147 -6.53117 0.351836 3.60282 -8.45624 0.0763649 -0.418976 
-63.7626 44.2944 16.7865 177.086 -78.0859 -175.753 132.096 86.271 140.835 -126.355 -6.85408 5.9421 58.5528 10.2843 16.3397 60.9753 27.1882 2.24183 112.863 66.4076 158.452 -127.621 23.9709 -5.3323 81.1134 -16.9948 -9.54494 48.3379 -3.39954 -10.2424 0.41686 12.3928 -90.4712 2.08979 0.650131 -0.90545 -9.58131 0.609651 -0.933189 -32.1163 0.892189 -0.668212 -12.1036 0.892193 -0.668207 88.6396 -28.9183 -109.506 -0.625579 -2.01391 -45.669 21.6861 19.4985 -51.5372 -13.5511 -0.293158 -2.43915 -100.083 -42.6073 61.5039 24.1875 4.81162 -38.8861 -25.0345 -22.4868 -53.4633 18.4104 0.664266 -0.252288 -6.46023 0.490764 3.86707 -9.02755 0.212431 -0.740704 
-63.3554 46.3265 16.5428 171.566 -78.1716 176.963 179.838 84.9993 91.6879 -123.333 -7.75557 6.1987 59.2498 10.4094 15.5964 58.3061 25.4146 3.15642 120.439 68.4285 149.286 -125.605 22.7376 -4.98163 81.217 -16.5966 -9.23415 48.5645 -3.44339 -10.3009 0.183811 12.291 -90.3404 2.29207 0.234852 -0.66005 -9.37902 0.205573 -0.669757 -31.9133 0.422366 -0.558961 -11.9007 0.422364 -0.558954 88.4305 -29.4002 -109.707 -0.550943 -2.36315 -44.5532 22.1318 19.0235 -52.8387 -15.1585 -0.328445 -2.61245 -100.275 -42.8155 61.2958 24.0175 5.11082 -38.0906 -25.2046 -22.534 -53.9817 16.2919 0.423126 -1.24888 -7.26852 0.488064 3.75351 -8.85595 0.226297 -0.429889 
-63.0966 48.5524 16.3952 169.655 -78.9538 173.584 -167.176 82.468 78.6158 -119.963 -7.92167 6.33882 59.0276 9.60913 15.1704 60.9591 26.0958 0.686729 128.386 69.6547 140.645 -123.241 21.1988 -4.62859 81.8343 -16.4435 -8.90885 47.9141 -3.36278 -10.2849 0.0693966 12.1528 -90.2113 2.56805 0.0560626 -0.411715 -9.10297 0.0378923 -0.413785 -31.6377 0.177202 -0.375844 -11.625 0.1772 -0.375843 88.5907 -29.816 -109.215 -0.521426 -2.54571 -44.2613 23.7568 19.6941 -53.9165 -14.5803 -0.275562 -2.88314 -100.07 -42.7622 61.589 23.7897 5.23605 -38.0474 -25.1787 -22.2781 -54.5111 16.1095 0.404087 -1.33051 -6.78565 0.448938 3.56545 -9.84744 0.18936 -0.417874 
-63.0185 51.0547 16.6915 171.551 -80.9185 174.178 -161.971 80.3225 73.9497 -116.737 -7.88658 6.31634 60.1627 9.6424 14.9257 60.6798 25.7454 0.533603 136.295 70.4775 133.282 -120.155 20.8621 -4.27324 82.3638 -16.1929 -8.52699 47.7085 -3.02668 -9.22214 0.0268678 11.8499 -90.0439 3.17407 0.0363401 -0.0857306 -8.49688 0.0325305 -0.0872513 -31.032 0.0604258 -0.0708354 -11.0194 0.0604248 -0.0708402 88.5086 -29.7899 -109.387 0.805712 -2.8466 -43.2806 23.794 19.3193 -54.8826 -14.4304 -0.297267 -2.6861 -99.8715 -42.7424 61.8873 22.5147 5.46763 -37.2092 -25.6321 -22.419 -55.763 17.5888 0.590731 -0.496811 -6.77113 0.577715 3.62942 -10.6429 0.325545 -0.543384 
-63.1268 53.837 16.9975 -176.048 -83.5966 -174.402 -159.515 78.6676 73.2397 -113.367 -7.50066 6.20953 61.8353 9.49684 14.0185 58.5892 24.934 2.05131 143.522 71.3072 127.921 -116.695 19.821 -3.84275 82.03 -15.6854 -8.17939 47.3766 -2.80789 -8.586 0.148845 11.4461 -89.8901 3.98105 0.341725 0.214608 -7.68985 0.350837 0.199362 -30.2251 0.261421 0.307381 -10.2125 0.261425 0.307397 88.5074 -30.3659 -109.144 2.2748 -3.09978 -42.1804 23.0338 18.5313 -56.3952 -14.0419 -0.287452 -2.63276 -99.9156 -43.1067 61.9722 21.5106 5.87692 -36.3752 -26.3247 -22.5193 -57.281 18.024 0.606983 -0.491483 -6.61456 0.727787 3.54855 -11.8971 0.4712 -0.414511 
-63.4549 56.7747 17.4832 -130.148 -84.8772 -129.39 -156.601 77.2791 73.6233 -109.845 -7.30581 5.98391 63.8279 9.34076 12.8311 55.05 23.3459 4.49923 151.752 72.011 123.142 -112.765 18.5423 -3.47809 82.1014 -15.4338 -7.88118 46.2568 -2.56542 -8.11706 0.467233 10.9724 -89.699 4.92645 1.05754 0.572067 -6.74419 1.0817 0.52497 -29.2806 0.836726 0.863459 -9.268 0.83673 0.863459 88.6222 -30.8707 -108.713 4.59631 -3.21452 -40.6772 21.5363 16.377 -57.9173 -14.2636 -0.368329 -2.06932 -100.618 -43.6886 61.1412 20.7247 6.21127 -34.7866 -26.2056 -21.9666 -58.8075 18.5809 0.706015 -0.0660256 -7.37875 0.190941 3.34148 -12.2497 -0.023432 -0.439489 
-63.9346 59.959 17.9824 -101.411 -83.9932 -100.355 -158.803 75.6485 79.1448 -106.004 -5.9372 5.499 64.8633 8.80802 12.1203 54.6646 22.3565 3.45971 157.198 70.7701 119.989 -108.234 17.7892 -3.14383 81.4206 -14.6218 -7.51036 45.7549 -2.35672 -7.52943 0.684088 10.5779 -89.6861 5.71369 1.49803 0.577949 -5.95649 1.52201 0.511447 -28.4958 1.25507 1.00149 -8.48317 1.25508 1.0015 88.6872 -31.297 -108.414 6.66849 -3.90468 -38.7797 19.8573 14.4389 -59.6826 -15.4683 -0.485054 -1.58195 -100.58 -44.0287 61.3426 18.4183 6.55742 -33.3742 -25.9055 -21.3056 -60.4973 19.2653 0.82209 0.402963 -7.40007 0.166489 3.76538 -13.6372 -0.0321022 -0.849287 
